# xmcd
#
# Track frame offsets: 
#        183
#        13828
#        30938
#        42038
#        61410
#        79135
#        96913
#        116063
#        134138
#        149620
#        169045
#        187885
#        209960
#        227000
#
# Disc length: 3267 seconds
#
# Revision: 1
# Processed by: cddbd v1.5.2PL0 Copyright (c) Steve Scherf et al.
# Submitted via: ExactAudioCopy v0.95b4
#
DISCID=c90cc10e
DTITLE=譚詠麟 - 繼續浪漫
DYEAR=1989
DGENRE=Pop
TTITLE0=小珊糊
TTITLE1=愛的替身
TTITLE2=愛是這樣甜
TTITLE3=午夜麗人
TTITLE4=誰可改變
TTITLE5=幸運星
TTITLE6=暴風女神 LORELEI
TTITLE7=第一滴淚\
TTITLE8=曾經
TTITLE9=痴心的廢墟
TTITLE10=DON'T SAY GOODBYE
TTITLE11=不見不散
TTITLE12=80歲後
TTITLE13=水中花
EXTD=
EXTT0=
EXTT1=
EXTT2=
EXTT3=
EXTT4=
EXTT5=
EXTT6=
EXTT7=
EXTT8=
EXTT9=
EXTT10=
EXTT11=
EXTT12=
EXTT13=
PLAYORDER=
